# xmcd
#
# Track frame offsets:
#	150
#	13190
#	25877
#	43170
#	56040
#	66140
#	78032
#	90322
#	101997
#	112927
#	125070
#	137307
#	151365
#	161547
#	173520
#	184607
#	195852
#	209150
#	220140
#	230760
#	243127
#	253752
#
# Disc length: 3574 seconds
#
# Revision: 1
# Processed by: cddbd v1.5.1PL0 Copyright (c) Steve Scherf et al.
# Submitted via: CDex 1.50Beta5
#
DISCID=260df416
DTITLE=Various Artist - CULT GS BOX Vol.1 Garage
DYEAR=1900
DGENRE=Rock
TTITLE0=トンネル天国
TTITLE1=恋するラ・ラ・ラ
TTITLE2=ゲルピン・ロック
TTITLE3=のっぽのサリー
TTITLE4=メラ・メラ
TTITLE5=離したくない
TTITLE6=恋を消すんだ
TTITLE7=すてきなサンディ
TTITLE8=ストップ・ダンス
TTITLE9=今も…
TTITLE10=電話でいいから
TTITLE11=ヘイ・ガール
TTITLE12=シェビデビで行こう
TTITLE13=レッツ・ダンス
TTITLE14=太陽の娘
TTITLE15=アフロデティ
TTITLE16=ブーン・ブーン
TTITLE17=ハイウェイの孤独
TTITLE18=夜明けがあるさ
TTITLE19=ヒッキー・ヒッキー
TTITLE20=恋のピストル
TTITLE21=サン・フラワー
EXTD=
EXTT0=
EXTT1=
EXTT2=
EXTT3=
EXTT4=
EXTT5=
EXTT6=
EXTT7=
EXTT8=
EXTT9=
EXTT10=
EXTT11=
EXTT12=
EXTT13=
EXTT14=
EXTT15=
EXTT16=
EXTT17=
EXTT18=
EXTT19=
EXTT20=
EXTT21=
PLAYORDER=
